<svg width="142" height="46" viewBox="0 0 142 46" fill="none" xmlns="http://www.w3.org/2000/svg">
<rect width="142" height="46" fill="#F15A24"/>
<path d="M33.0938 17.125H37.3359C38.2057 17.125 38.9531 17.2552 39.5781 17.5156C40.2083 17.776 40.6927 18.1615 41.0312 18.6719C41.3698 19.1823 41.5391 19.8099 41.5391 20.5547C41.5391 21.1641 41.4349 21.6875 41.2266 22.125C41.0234 22.5573 40.7344 22.9193 40.3594 23.2109C39.9896 23.4974 39.5547 23.7266 39.0547 23.8984L38.3125 24.2891H34.625L34.6094 22.4609H37.3516C37.763 22.4609 38.1042 22.388 38.375 22.2422C38.6458 22.0964 38.849 21.8932 38.9844 21.6328C39.125 21.3724 39.1953 21.0703 39.1953 20.7266C39.1953 20.362 39.1276 20.0469 38.9922 19.7812C38.8568 19.5156 38.651 19.3125 38.375 19.1719C38.099 19.0312 37.7526 18.9609 37.3359 18.9609H35.4375V28.5H33.0938V17.125ZM39.4531 28.5L36.8594 23.4297L39.3359 23.4141L41.9609 28.3906V28.5H39.4531ZM47.0938 28.6562C46.4375 28.6562 45.849 28.5521 45.3281 28.3438C44.8073 28.1302 44.3646 27.8359 44 27.4609C43.6406 27.0859 43.3646 26.651 43.1719 26.1562C42.9792 25.6562 42.8828 25.125 42.8828 24.5625V24.25C42.8828 23.6094 42.974 23.0234 43.1562 22.4922C43.3385 21.9609 43.599 21.5 43.9375 21.1094C44.2812 20.7188 44.6979 20.4193 45.1875 20.2109C45.6771 19.9974 46.2292 19.8906 46.8438 19.8906C47.4427 19.8906 47.974 19.9896 48.4375 20.1875C48.901 20.3854 49.2891 20.6667 49.6016 21.0312C49.9193 21.3958 50.1589 21.8333 50.3203 22.3438C50.4818 22.849 50.5625 23.4115 50.5625 24.0312V24.9688H43.8438V23.4688H48.3516V23.2969C48.3516 22.9844 48.2943 22.7057 48.1797 22.4609C48.0703 22.2109 47.9036 22.013 47.6797 21.8672C47.4557 21.7214 47.1693 21.6484 46.8203 21.6484C46.5234 21.6484 46.2682 21.7135 46.0547 21.8438C45.8411 21.974 45.6667 22.1562 45.5312 22.3906C45.401 22.625 45.3021 22.901 45.2344 23.2188C45.1719 23.5312 45.1406 23.875 45.1406 24.25V24.5625C45.1406 24.901 45.1875 25.2135 45.2812 25.5C45.3802 25.7865 45.5182 26.0339 45.6953 26.2422C45.8776 26.4505 46.0964 26.612 46.3516 26.7266C46.612 26.8411 46.9062 26.8984 47.2344 26.8984C47.6406 26.8984 48.0182 26.8203 48.3672 26.6641C48.7214 26.5026 49.026 26.2604 49.2812 25.9375L50.375 27.125C50.1979 27.3802 49.9557 27.625 49.6484 27.8594C49.3464 28.0938 48.9818 28.2865 48.5547 28.4375C48.1276 28.5833 47.6406 28.6562 47.0938 28.6562ZM56.4062 26.5938V22.8281C56.4062 22.5573 56.362 22.3255 56.2734 22.1328C56.1849 21.9349 56.0469 21.7812 55.8594 21.6719C55.6771 21.5625 55.4401 21.5078 55.1484 21.5078C54.8984 21.5078 54.6823 21.5521 54.5 21.6406C54.3177 21.724 54.1771 21.8464 54.0781 22.0078C53.9792 22.1641 53.9297 22.349 53.9297 22.5625H51.6797C51.6797 22.2031 51.763 21.862 51.9297 21.5391C52.0964 21.2161 52.3385 20.9323 52.6562 20.6875C52.974 20.4375 53.3516 20.2422 53.7891 20.1016C54.2318 19.9609 54.7266 19.8906 55.2734 19.8906C55.9297 19.8906 56.513 20 57.0234 20.2188C57.5339 20.4375 57.9349 20.7656 58.2266 21.2031C58.5234 21.6406 58.6719 22.1875 58.6719 22.8438V26.4609C58.6719 26.9245 58.7005 27.3047 58.7578 27.6016C58.8151 27.8932 58.8984 28.1484 59.0078 28.3672V28.5H56.7344C56.625 28.2708 56.5417 27.9844 56.4844 27.6406C56.4323 27.2917 56.4062 26.9427 56.4062 26.5938ZM56.7031 23.3516L56.7188 24.625H55.4609C55.1641 24.625 54.9062 24.6589 54.6875 24.7266C54.4688 24.7943 54.2891 24.8906 54.1484 25.0156C54.0078 25.1354 53.9036 25.276 53.8359 25.4375C53.7734 25.599 53.7422 25.776 53.7422 25.9688C53.7422 26.1615 53.7865 26.3359 53.875 26.4922C53.9635 26.6432 54.0911 26.763 54.2578 26.8516C54.4245 26.9349 54.6198 26.9766 54.8438 26.9766C55.1823 26.9766 55.4766 26.9089 55.7266 26.7734C55.9766 26.638 56.1693 26.4714 56.3047 26.2734C56.4453 26.0755 56.5182 25.888 56.5234 25.7109L57.1172 26.6641C57.0339 26.8776 56.9193 27.099 56.7734 27.3281C56.6328 27.5573 56.4531 27.7734 56.2344 27.9766C56.0156 28.1745 55.7526 28.3385 55.4453 28.4688C55.138 28.5938 54.7734 28.6562 54.3516 28.6562C53.8151 28.6562 53.3281 28.5495 52.8906 28.3359C52.4583 28.1172 52.1146 27.8177 51.8594 27.4375C51.6094 27.0521 51.4844 26.6146 51.4844 26.125C51.4844 25.6823 51.5677 25.2891 51.7344 24.9453C51.901 24.6016 52.1458 24.3125 52.4688 24.0781C52.7969 23.8385 53.2057 23.6589 53.6953 23.5391C54.1849 23.4141 54.7526 23.3516 55.3984 23.3516H56.7031ZM65.3984 26.6562V16.5H67.6641V28.5H65.625L65.3984 26.6562ZM60.0547 24.375V24.2109C60.0547 23.5651 60.1276 22.9792 60.2734 22.4531C60.4193 21.9219 60.6328 21.4661 60.9141 21.0859C61.1953 20.7057 61.5417 20.4115 61.9531 20.2031C62.3646 19.9948 62.8333 19.8906 63.3594 19.8906C63.8542 19.8906 64.2865 19.9948 64.6562 20.2031C65.0312 20.4115 65.349 20.7083 65.6094 21.0938C65.875 21.474 66.0885 21.9245 66.25 22.4453C66.4115 22.9609 66.5286 23.526 66.6016 24.1406V24.5C66.5286 25.0885 66.4115 25.6354 66.25 26.1406C66.0885 26.6458 65.875 27.0885 65.6094 27.4688C65.349 27.8438 65.0312 28.1354 64.6562 28.3438C64.2812 28.5521 63.8438 28.6562 63.3438 28.6562C62.8177 28.6562 62.349 28.5495 61.9375 28.3359C61.5312 28.1224 61.1875 27.8229 60.9062 27.4375C60.6302 27.0521 60.4193 26.599 60.2734 26.0781C60.1276 25.5573 60.0547 24.9896 60.0547 24.375ZM62.3047 24.2109V24.375C62.3047 24.724 62.3307 25.0495 62.3828 25.3516C62.4401 25.6536 62.5312 25.9219 62.6562 26.1562C62.7865 26.3854 62.9531 26.5651 63.1562 26.6953C63.3646 26.8203 63.6172 26.8828 63.9141 26.8828C64.2995 26.8828 64.6172 26.7969 64.8672 26.625C65.1172 26.4479 65.3073 26.2057 65.4375 25.8984C65.5729 25.5911 65.651 25.237 65.6719 24.8359V23.8125C65.6562 23.4844 65.6094 23.1901 65.5312 22.9297C65.4583 22.6641 65.349 22.4375 65.2031 22.25C65.0625 22.0625 64.8854 21.9167 64.6719 21.8125C64.4635 21.7083 64.2161 21.6562 63.9297 21.6562C63.638 21.6562 63.388 21.724 63.1797 21.8594C62.9714 21.9896 62.8021 22.1693 62.6719 22.3984C62.5469 22.6276 62.4531 22.8984 62.3906 23.2109C62.3333 23.5182 62.3047 23.8516 62.3047 24.2109ZM74.6172 17.125H76.6016L79.5234 25.4766L82.4453 17.125H84.4297L80.3203 28.5H78.7266L74.6172 17.125ZM73.5469 17.125H75.5234L75.8828 25.2656V28.5H73.5469V17.125ZM83.5234 17.125H85.5078V28.5H83.1641V25.2656L83.5234 17.125ZM87.0625 24.3594V24.1953C87.0625 23.5755 87.151 23.0052 87.3281 22.4844C87.5052 21.9583 87.763 21.5026 88.1016 21.1172C88.4401 20.7318 88.8568 20.4323 89.3516 20.2188C89.8464 20 90.4141 19.8906 91.0547 19.8906C91.6953 19.8906 92.2656 20 92.7656 20.2188C93.2656 20.4323 93.6849 20.7318 94.0234 21.1172C94.3672 21.5026 94.6276 21.9583 94.8047 22.4844C94.9818 23.0052 95.0703 23.5755 95.0703 24.1953V24.3594C95.0703 24.974 94.9818 25.5443 94.8047 26.0703C94.6276 26.5911 94.3672 27.0469 94.0234 27.4375C93.6849 27.8229 93.2682 28.1224 92.7734 28.3359C92.2786 28.5495 91.7109 28.6562 91.0703 28.6562C90.4297 28.6562 89.8594 28.5495 89.3594 28.3359C88.8646 28.1224 88.4453 27.8229 88.1016 27.4375C87.763 27.0469 87.5052 26.5911 87.3281 26.0703C87.151 25.5443 87.0625 24.974 87.0625 24.3594ZM89.3125 24.1953V24.3594C89.3125 24.7135 89.3438 25.0443 89.4062 25.3516C89.4688 25.6589 89.5677 25.9297 89.7031 26.1641C89.8438 26.3932 90.026 26.5729 90.25 26.7031C90.474 26.8333 90.7474 26.8984 91.0703 26.8984C91.3828 26.8984 91.651 26.8333 91.875 26.7031C92.099 26.5729 92.2786 26.3932 92.4141 26.1641C92.5495 25.9297 92.6484 25.6589 92.7109 25.3516C92.7786 25.0443 92.8125 24.7135 92.8125 24.3594V24.1953C92.8125 23.8516 92.7786 23.5286 92.7109 23.2266C92.6484 22.9193 92.5469 22.6484 92.4062 22.4141C92.2708 22.1745 92.0911 21.987 91.8672 21.8516C91.6432 21.7161 91.3724 21.6484 91.0547 21.6484C90.737 21.6484 90.4661 21.7161 90.2422 21.8516C90.0234 21.987 89.8438 22.1745 89.7031 22.4141C89.5677 22.6484 89.4688 22.9193 89.4062 23.2266C89.3438 23.5286 89.3125 23.8516 89.3125 24.1953ZM98.7031 21.8906V28.5H96.4531V20.0469H98.5703L98.7031 21.8906ZM101.25 19.9922L101.211 22.0781C101.102 22.0625 100.969 22.0495 100.812 22.0391C100.661 22.0234 100.523 22.0156 100.398 22.0156C100.081 22.0156 99.8047 22.0573 99.5703 22.1406C99.3411 22.2188 99.1484 22.3359 98.9922 22.4922C98.8411 22.6484 98.7266 22.8385 98.6484 23.0625C98.5755 23.2865 98.5339 23.5417 98.5234 23.8281L98.0703 23.6875C98.0703 23.1406 98.125 22.638 98.2344 22.1797C98.3438 21.7161 98.5026 21.3125 98.7109 20.9688C98.9245 20.625 99.1849 20.3594 99.4922 20.1719C99.7995 19.9844 100.151 19.8906 100.547 19.8906C100.672 19.8906 100.799 19.901 100.93 19.9219C101.06 19.9375 101.167 19.9609 101.25 19.9922ZM106.047 28.6562C105.391 28.6562 104.802 28.5521 104.281 28.3438C103.76 28.1302 103.318 27.8359 102.953 27.4609C102.594 27.0859 102.318 26.651 102.125 26.1562C101.932 25.6562 101.836 25.125 101.836 24.5625V24.25C101.836 23.6094 101.927 23.0234 102.109 22.4922C102.292 21.9609 102.552 21.5 102.891 21.1094C103.234 20.7188 103.651 20.4193 104.141 20.2109C104.63 19.9974 105.182 19.8906 105.797 19.8906C106.396 19.8906 106.927 19.9896 107.391 20.1875C107.854 20.3854 108.242 20.6667 108.555 21.0312C108.872 21.3958 109.112 21.8333 109.273 22.3438C109.435 22.849 109.516 23.4115 109.516 24.0312V24.9688H102.797V23.4688H107.305V23.2969C107.305 22.9844 107.247 22.7057 107.133 22.4609C107.023 22.2109 106.857 22.013 106.633 21.8672C106.409 21.7214 106.122 21.6484 105.773 21.6484C105.477 21.6484 105.221 21.7135 105.008 21.8438C104.794 21.974 104.62 22.1562 104.484 22.3906C104.354 22.625 104.255 22.901 104.188 23.2188C104.125 23.5312 104.094 23.875 104.094 24.25V24.5625C104.094 24.901 104.141 25.2135 104.234 25.5C104.333 25.7865 104.471 26.0339 104.648 26.2422C104.831 26.4505 105.049 26.612 105.305 26.7266C105.565 26.8411 105.859 26.8984 106.188 26.8984C106.594 26.8984 106.971 26.8203 107.32 26.6641C107.674 26.5026 107.979 26.2604 108.234 25.9375L109.328 27.125C109.151 27.3802 108.909 27.625 108.602 27.8594C108.299 28.0938 107.935 28.2865 107.508 28.4375C107.081 28.5833 106.594 28.6562 106.047 28.6562Z" fill="white"/>
</svg>
